# Blender v2.75 (sub 0) OBJ File: 'wall_2x32x32.blend'
# www.blender.org
mtllib wall_2x32x32.mtl
o Cube
v 15.999994 -16.000000 -0.999999
v 15.999994 -16.000000 1.000000
v -15.999996 -16.000000 0.999999
v -15.999989 -16.000000 -1.000000
v 16.000002 16.000000 -0.999999
v 15.999984 16.000000 1.000000
v -16.000000 16.000000 0.999999
v -15.999992 16.000000 -1.000000
v 14.773432 -3.842529 0.152084
vt 0.545125 0.281481
vt 0.545618 0.735249
vt 0.500242 0.735298
vt 0.046474 0.735792
vt 0.001097 0.735841
vt 0.000604 0.282074
vt 0.998843 0.235611
vt 0.998892 0.280988
vt 0.999386 0.734756
vt 0.999435 0.780133
vt 0.545668 0.780625
vt 0.499748 0.281531
vt 0.045980 0.282024
vt 0.545075 0.236105
vn 0.000000 -1.000000 0.000000
vn 0.000000 1.000000 0.000000
vn 1.000000 0.000000 0.000000
vn -0.000000 0.000000 1.000000
vn -1.000000 -0.000000 -0.000000
vn 0.000000 0.000000 -1.000000
usemtl cube_texture_2x32x32
s off
f 2/1/1 3/2/1 4/3/1
f 8/4/2 7/5/2 6/6/2
f 5/7/3 6/8/3 2/1/3
f 6/8/4 7/9/4 3/2/4
f 7/9/5 8/10/5 4/11/5
f 1/12/6 4/3/6 8/4/6
f 1/12/1 2/1/1 4/3/1
f 5/13/2 8/4/2 6/6/2
f 1/14/3 5/7/3 2/1/3
f 2/1/4 6/8/4 3/2/4
f 3/2/5 7/9/5 4/11/5
f 5/13/6 1/12/6 8/4/6
