# Blender v2.76 (sub 0) OBJ File: 'hexokinase_wrl_1glk-ribbon-secondary.blend'
# www.blender.org
mtllib image1.mtl
o 2016-06-26_18.54.47
v -0.819136 3.556556 0.369966
v 0.958642 3.556556 0.369966
v -0.819136 3.556556 -0.630034
v 0.958642 3.556556 -0.630034
vt 1.000000 0.000000
vt 1.000000 1.000000
vt 0.000000 1.000000
vt 0.000000 0.000000
vn 0.000000 1.000000 0.000000
g 2016-06-26_18.54.47_2016-06-26_18.54.47_2016-06-26_18.54.47
usemtl 2016-06-26_18.54.47
s off
f 2/1/1 4/2/1 3/3/1
f 1/4/1 2/1/1 3/3/1
