# Blender v2.75 (sub 0) OBJ File: 'plane.blend'
# www.blender.org
o Plane
v -6.000000 0.000000 11.000000
v 6.000000 0.000000 11.000000
v -6.000000 0.000000 -11.000000
v 6.000000 0.000000 -11.000000
v -6.000000 0.000000 11.000000
v 6.000000 0.000000 11.000000
v -6.000000 0.000000 -11.000000
v 6.000000 0.000000 -11.000000
vt 0.984478 0.001024
vt 0.984478 1.000876
vt 0.001605 1.000876
vt 0.001604 0.001024
vt 0.000818 0.990653
vt 0.000224 0.074483
vt 0.499954 0.074159
vt 0.500548 0.990329
vn 0.000000 1.000000 0.000000
s off
f 2/1/1 4/2/1 3/3/1
f 1/4/1 2/1/1 3/3/1
f 6/5/1 8/6/1 7/7/1
f 5/8/1 6/5/1 7/7/1
