# Blender v2.75 (sub 0) OBJ File: 'arrow_rectangle_down_single_bent6.blend'
# www.blender.org
mtllib arrow_rectangle_down_single_bent6.mtl
g Cube
v -0.160789 -0.148134 0.012787
v -0.108985 -0.148136 0.012787
v -0.108985 -0.148136 -0.007935
v -0.160789 -0.148134 -0.007935
v -0.160820 -0.769780 0.012786
v -0.109016 -0.769782 0.012786
v -0.160820 -0.769780 -0.007935
v -0.109016 -0.769782 -0.007935
v -0.134918 -0.769781 0.012786
v -0.134918 -0.769781 -0.007935
v -0.038905 -0.731035 -0.007935
v -0.038905 -0.731035 0.012786
v -0.230927 -0.731026 0.012787
v -0.230927 -0.731026 -0.007935
v -0.134928 -0.969781 0.012786
v -0.134928 -0.969781 -0.007935
v -0.108985 -0.148136 0.012787
v -0.108985 -0.148136 -0.007935
v -0.160740 0.851866 0.012787
v -0.108936 0.851864 0.012787
v -0.160740 0.851866 -0.007935
v -0.108936 0.851864 -0.007935
vt 0.115109 0.506393
vt 0.115109 0.496032
vt 0.425932 0.496033
vt 0.445492 0.115109
vt 0.432536 0.015109
vt 0.419590 0.115110
vt 0.134482 0.496032
vt 0.134482 0.506393
vt 0.015109 0.506393
vt 0.445492 0.506393
vt 0.480548 0.506393
vt 0.480548 0.496032
vt 0.015109 0.496032
vt 0.384536 0.506393
vt 0.384536 0.496032
vt 0.419590 0.496032
vt 0.419605 0.425933
vt 0.445507 0.425932
vt 0.925933 0.506393
vt 0.925933 0.496033
vt 0.445532 0.496033
vt 0.419630 0.925933
vt 0.425932 0.506393
vt 0.384536 0.134487
vt 0.480548 0.134482
vt 0.419590 0.506393
vt 0.445532 0.925932
vn 1.000000 -0.000000 -0.000000
vn -0.000000 0.000000 -1.000000
vn 0.927800 -0.373100 -0.000000
vn -0.483700 0.875200 0.000000
vn 0.927800 0.373100 -0.000000
vn -0.483800 -0.875200 0.000000
vn -1.000000 0.000000 0.000000
vn 0.000000 -0.000000 1.000000
vn 0.000000 1.000000 0.000000
usemtl Material
s off
f 6/1/1 8/2/1 3/3/1
f 8/4/2 16/5/2 7/6/2
f 11/7/3 12/8/3 15/9/3
f 6/10/4 12/11/4 11/12/4
f 13/8/5 15/9/5 16/13/5
f 13/14/6 14/15/6 7/16/6
f 4/3/7 7/2/7 5/1/7
f 6/4/8 1/17/8 5/6/8
f 2/18/8 3/18/8 18/18/8
f 19/19/7 21/20/7 4/3/7
f 20/10/9 22/21/9 21/16/9
f 18/3/1 22/20/1 20/19/1
f 4/17/2 21/22/2 18/18/2
f 2/23/1 6/1/1 3/3/1
f 8/4/2 4/17/2 3/18/2
f 16/5/2 14/24/2 7/6/2
f 8/4/2 11/25/2 16/5/2
f 7/6/2 4/17/2 8/4/2
f 16/13/3 11/7/3 15/9/3
f 8/21/4 6/10/4 11/12/4
f 14/7/5 13/8/5 16/13/5
f 5/26/6 13/14/6 7/16/6
f 1/23/7 4/3/7 5/1/7
f 15/5/8 12/25/8 6/4/8
f 6/4/8 2/18/8 17/18/8
f 17/18/8 20/27/8 19/22/8
f 5/6/8 13/24/8 15/5/8
f 17/18/8 19/22/8 1/17/8
f 6/4/8 5/6/8 15/5/8
f 1/17/8 6/4/8 17/18/8
f 17/18/8 2/18/8 18/18/8
f 1/23/7 19/19/7 4/3/7
f 19/26/9 20/10/9 21/16/9
f 17/23/1 18/3/1 20/19/1
f 18/18/8 3/18/8 4/17/8
f 21/22/2 22/27/2 18/18/2
