# Blender v2.76 (sub 0) OBJ File: 'arrow_rectangle_down_up.blend'
# www.blender.org
o Cube.001_Cube.002
v 0.038034 0.031609 0.011052
v -0.013770 0.031611 0.011052
v -0.013770 0.031624 -0.009670
v 0.038034 0.031622 -0.009670
v 0.038065 0.653255 0.011447
v -0.013739 0.653257 0.011447
v 0.038065 0.653268 -0.009275
v -0.013739 0.653271 -0.009275
v 0.012163 0.653256 0.011447
v 0.012163 0.653269 -0.009275
v -0.083850 0.614524 -0.009300
v -0.083851 0.614510 0.011422
v 0.108172 0.614501 0.011422
v 0.108172 0.614514 -0.009299
v 0.012172 0.853256 0.011574
v 0.012172 0.853269 -0.009148
v -0.013770 0.031611 0.011052
v -0.013770 0.031624 -0.009670
v 0.037985 -0.968391 0.010417
v -0.013819 -0.968388 0.010417
v 0.037985 -0.968378 -0.010305
v -0.013819 -0.968375 -0.010305
vt 0.115109 0.506393
vt 0.115109 0.496032
vt 0.425932 0.496033
vt 0.445492 0.115109
vt 0.432536 0.015109
vt 0.419590 0.115110
vt 0.134482 0.496032
vt 0.134482 0.506393
vt 0.015109 0.506393
vt 0.445492 0.506393
vt 0.480548 0.506393
vt 0.480548 0.496032
vt 0.015109 0.496032
vt 0.384536 0.506393
vt 0.384536 0.496032
vt 0.419590 0.496032
vt 0.445507 0.425932
vt 0.425933 0.506393
vt 0.925933 0.506393
vt 0.925933 0.496033
vt 0.445532 0.496033
vt 0.419605 0.425933
vt 0.445532 0.925932
vt 0.480548 0.134482
vt 0.384536 0.134487
vt 0.419590 0.506393
vt 0.419630 0.925933
vn -1.000000 0.000000 -0.000000
vn 0.000000 0.000600 -1.000000
vn -0.927800 0.373100 0.000200
vn 0.483700 -0.875200 -0.000600
vn -0.927800 -0.373100 -0.000200
vn 0.483800 0.875200 0.000600
vn 1.000000 -0.000000 0.000000
vn -0.000000 -0.000600 1.000000
vn 0.000000 0.000000 1.000000
vn -0.000000 -1.000000 -0.000600
vn 0.483700 -0.875200 -0.000500
s off
f 6/1/1 8/2/1 3/3/1
f 8/4/2 16/5/2 7/6/2
f 11/7/3 12/8/3 15/9/3
f 6/10/4 12/11/4 11/12/4
f 13/8/5 15/9/5 16/13/5
f 13/14/6 14/15/6 7/16/6
f 4/3/7 7/2/7 5/1/7
f 5/6/8 15/5/8 6/4/8
f 2/17/9 3/17/9 18/17/9
f 1/18/7 19/19/7 21/20/7
f 20/10/10 22/21/10 21/16/10
f 18/3/1 22/20/1 20/19/1
f 4/22/2 22/23/2 18/17/2
f 2/18/1 6/1/1 3/3/1
f 4/22/2 3/17/2 8/4/2
f 8/4/2 11/24/2 16/5/2
f 16/5/2 14/25/2 7/6/2
f 7/6/2 4/22/2 8/4/2
f 16/13/3 11/7/3 15/9/3
f 8/21/11 6/10/11 11/12/11
f 14/7/5 13/8/5 16/13/5
f 5/26/6 13/14/6 7/16/6
f 1/18/7 4/3/7 5/1/7
f 6/4/9 2/17/9 17/17/9
f 17/17/8 20/23/8 19/27/8
f 5/6/8 13/25/8 15/5/8
f 17/17/8 19/27/8 1/22/8
f 1/22/8 5/6/8 6/4/8
f 15/5/8 12/24/8 6/4/8
f 6/4/8 17/17/8 1/22/8
f 17/17/9 2/17/9 18/17/9
f 4/3/7 1/18/7 21/20/7
f 19/26/10 20/10/10 21/16/10
f 17/18/1 18/3/1 20/19/1
f 4/22/2 21/27/2 22/23/2
f 18/17/9 3/17/9 4/22/9
o Cube
v -0.160789 -0.148134 0.012787
v -0.108985 -0.148136 0.012787
v -0.108985 -0.148136 -0.007935
v -0.160789 -0.148134 -0.007935
v -0.160820 -0.769780 0.012786
v -0.109016 -0.769782 0.012786
v -0.160820 -0.769780 -0.007935
v -0.109016 -0.769782 -0.007935
v -0.134918 -0.769781 0.012786
v -0.134918 -0.769781 -0.007935
v -0.038905 -0.731035 -0.007935
v -0.038905 -0.731035 0.012786
v -0.230927 -0.731026 0.012787
v -0.230927 -0.731026 -0.007935
v -0.134928 -0.969781 0.012786
v -0.134928 -0.969781 -0.007935
v -0.108985 -0.148136 0.012787
v -0.108985 -0.148136 -0.007935
v -0.160740 0.851866 0.012787
v -0.108936 0.851864 0.012787
v -0.160740 0.851866 -0.007935
v -0.108936 0.851864 -0.007935
vt 0.115109 0.506393
vt 0.115109 0.496032
vt 0.425932 0.496033
vt 0.445492 0.115109
vt 0.432536 0.015109
vt 0.419590 0.115110
vt 0.134482 0.496032
vt 0.134482 0.506393
vt 0.015109 0.506393
vt 0.445492 0.506393
vt 0.480548 0.506393
vt 0.480548 0.496032
vt 0.015109 0.496032
vt 0.384536 0.506393
vt 0.384536 0.496032
vt 0.419590 0.496032
vt 0.445507 0.425932
vt 0.925933 0.506393
vt 0.925933 0.496033
vt 0.445532 0.496033
vt 0.419630 0.925933
vt 0.445532 0.925932
vt 0.425932 0.506393
vt 0.419605 0.425933
vt 0.480548 0.134482
vt 0.384536 0.134487
vt 0.419590 0.506393
vn 1.000000 -0.000000 -0.000000
vn -0.000000 0.000000 -1.000000
vn 0.927800 -0.373100 -0.000000
vn -0.483700 0.875200 0.000000
vn 0.927800 0.373100 -0.000000
vn -0.483800 -0.875200 0.000000
vn -1.000000 0.000000 0.000000
vn 0.000000 -0.000000 1.000000
vn 0.000000 1.000000 0.000000
s off
f 28/28/12 30/29/12 25/30/12
f 30/31/13 38/32/13 29/33/13
f 33/34/14 34/35/14 37/36/14
f 28/37/15 34/38/15 33/39/15
f 35/35/16 37/36/16 38/40/16
f 35/41/17 36/42/17 29/43/17
f 26/30/18 29/29/18 27/28/18
f 27/33/19 37/32/19 28/31/19
f 24/44/19 25/44/19 40/44/19
f 41/45/18 43/46/18 26/30/18
f 42/37/20 44/47/20 43/43/20
f 40/30/12 44/46/12 42/45/12
f 43/48/13 44/49/13 40/44/13
f 24/50/12 28/28/12 25/30/12
f 26/51/13 25/44/13 30/31/13
f 30/31/13 33/52/13 38/32/13
f 38/32/13 36/53/13 29/33/13
f 29/33/13 26/51/13 30/31/13
f 38/40/14 33/34/14 37/36/14
f 30/47/15 28/37/15 33/39/15
f 36/34/16 35/35/16 38/40/16
f 27/54/17 35/41/17 29/43/17
f 23/50/18 26/30/18 27/28/18
f 28/31/19 24/44/19 39/44/19
f 39/44/19 42/49/19 41/48/19
f 27/33/19 35/53/19 37/32/19
f 39/44/19 41/48/19 23/51/19
f 23/51/19 27/33/19 28/31/19
f 37/32/19 34/52/19 28/31/19
f 28/31/19 39/44/19 23/51/19
f 39/44/19 24/44/19 40/44/19
f 23/50/18 41/45/18 26/30/18
f 41/54/20 42/37/20 43/43/20
f 39/50/12 40/30/12 42/45/12
f 26/51/13 43/48/13 40/44/13
f 40/44/19 25/44/19 26/51/19
