# Blender v2.75 (sub 0) OBJ File: 'arrow_rectangle_down_single_bent3.blend'
# www.blender.org
mtllib arrow_rectangle_down_single_bent3.mtl
o Cube
v -0.160789 0.012787 0.148134
v -0.108985 0.012787 0.148136
v -0.108985 -0.007935 0.148136
v -0.160789 -0.007935 0.148134
v -0.160820 0.012786 0.769780
v -0.109016 0.012786 0.769782
v -0.160820 -0.007935 0.769780
v -0.109016 -0.007935 0.769782
v -0.134918 0.012786 0.769781
v -0.134918 -0.007935 0.769781
v -0.038905 -0.007935 0.731035
v -0.038905 0.012786 0.731035
v -0.230927 0.012787 0.731026
v -0.230927 -0.007935 0.731026
v -0.134928 0.012786 0.969781
v -0.134928 -0.007935 0.969781
v -0.108985 0.012787 0.148136
v -0.108985 -0.007935 0.148136
v -0.160740 0.012787 -0.851866
v -0.108936 0.012787 -0.851864
v -0.160740 -0.007935 -0.851866
v -0.108936 -0.007935 -0.851864
vt 0.000212 0.808679
vt 0.000212 0.775361
vt 0.999754 0.775361
vt 0.314118 0.081556
vt 0.000212 0.000212
vt 0.414412 0.067700
vt 0.827947 0.320847
vt 0.827947 0.354166
vt 0.414173 0.354166
vt 0.542978 0.387909
vt 0.414173 0.387909
vt 0.414173 0.354590
vt 0.827949 0.287102
vt 0.827949 0.320421
vt 0.414173 0.320421
vt 0.542978 0.421653
vt 0.414173 0.421653
vt 0.414173 0.388334
vt 0.999754 0.774936
vt 0.000212 0.774591
vt 0.000224 0.741273
vt 0.999754 0.808682
vt 0.999766 0.741614
vt 0.497470 0.455397
vt 0.414173 0.455397
vt 0.414173 0.422078
vt 0.999779 0.657550
vt 0.999779 0.740847
vt 0.298788 0.286677
vt 0.413987 0.000212
vt 0.414173 0.320846
vt 0.542978 0.354590
vt 0.414173 0.287103
vt 0.542978 0.388334
vt 0.497470 0.422078
vn 1.000000 -0.000000 0.000000
vn -0.000000 -1.000000 -0.000000
vn 0.927800 -0.000000 0.373100
vn -0.483700 0.000000 -0.875200
vn 0.927800 0.000000 -0.373100
vn -0.483800 0.000000 0.875200
vn -1.000000 0.000000 -0.000000
vn 0.000000 0.000000 1.000000
vn 0.000100 -0.000000 -1.000000
vn 0.000000 1.000000 0.000000
usemtl Material.001
s off
f 6/1/1 8/2/1 3/3/1
f 8/4/2 16/5/2 7/6/2
f 11/7/3 12/8/3 15/9/3
f 6/10/4 12/11/4 11/12/4
f 14/13/5 13/14/5 15/15/5
f 14/16/6 7/17/6 5/18/6
f 4/19/7 7/20/7 5/21/7
f 2/22/8 3/3/8 18/3/8
f 19/23/7 21/19/7 4/19/7
f 19/24/9 20/25/9 22/26/9
f 18/3/1 22/3/1 20/22/1
f 4/27/2 21/27/2 22/28/2
f 2/22/1 6/1/1 3/3/1
f 7/6/2 4/27/2 3/28/2
f 16/5/2 14/29/2 7/6/2
f 8/4/2 11/30/2 16/5/2
f 7/6/2 3/28/2 8/4/2
f 16/31/3 11/7/3 15/9/3
f 8/32/4 6/10/4 11/12/4
f 16/33/5 14/13/5 15/15/5
f 13/34/6 14/16/6 5/18/6
f 1/23/7 4/19/7 5/21/7
f 17/22/8 2/22/8 18/3/8
f 1/23/7 19/23/7 4/19/7
f 21/35/9 19/24/9 22/26/9
f 17/22/1 18/3/1 20/22/1
f 18/28/8 3/28/8 4/27/8
f 4/27/2 22/28/2 18/28/2
usemtl Material.001_NONE
f 6/22/10 1/21/10 5/18/10
f 15/8/10 12/10/10 6/22/10
f 6/22/8 2/22/8 17/22/8
f 1/21/10 20/24/10 19/23/10
f 5/18/10 13/14/10 15/8/10
f 17/22/10 20/24/10 1/21/10
f 6/22/10 5/18/10 15/8/10
f 1/21/10 6/22/10 17/22/10
