# Blender v2.76 (sub 0) OBJ File: 'arrow_rectangle_down_up_bent2.blend'
# www.blender.org
o Cube.001_Cube.003
v -0.360681 0.295542 0.000591
v -0.304812 0.295552 0.000693
v -0.304836 0.295553 0.013681
v -0.360705 0.295543 0.013579
v -0.360773 0.685186 0.000559
v -0.304903 0.685196 0.000661
v -0.360796 0.685187 0.013547
v -0.304927 0.685197 0.013649
v -0.332838 0.685191 0.000610
v -0.332862 0.685192 0.013598
v -0.229310 0.660922 0.013789
v -0.229287 0.660921 0.000801
v -0.436378 0.660884 0.000423
v -0.436402 0.660885 0.013411
v -0.332867 0.810550 0.000600
v -0.332891 0.810551 0.013588
v -0.304812 0.295552 0.000693
v -0.304836 0.295553 0.013681
v -0.360534 -0.331252 0.000643
v -0.304665 -0.331243 0.000745
v -0.360558 -0.331251 0.013631
v -0.304689 -0.331241 0.013733
v -0.360439 -0.809860 0.000683
v -0.304570 -0.809850 0.000785
v -0.360463 -0.809859 0.013671
v -0.304593 -0.809849 0.013773
v -0.360409 -0.966940 0.000696
v -0.304539 -0.966930 0.000798
v -0.360432 -0.966939 0.013684
v -0.304563 -0.966929 0.013786
vt 0.115109 0.506393
vt 0.115109 0.496032
vt 0.425932 0.496033
vt 0.445492 0.115109
vt 0.432536 0.015109
vt 0.419590 0.115110
vt 0.134482 0.496032
vt 0.134482 0.506393
vt 0.015109 0.506393
vt 0.445492 0.506393
vt 0.480548 0.506393
vt 0.480548 0.496032
vt 0.015109 0.496032
vt 0.384536 0.506393
vt 0.384536 0.496032
vt 0.419590 0.496032
vt 0.425933 0.506393
vt 0.445507 0.425932
vt 0.925933 0.506393
vt 0.925933 0.496033
vt 0.445532 0.925932
vt 0.419630 0.925933
vt 0.419630 0.506393
vt 0.445532 0.496033
vt 0.419605 0.425933
vt 0.480548 0.134482
vt 0.384536 0.134487
vn 1.000000 0.000200 0.001800
vn -0.001800 0.000100 1.000000
vn 0.822200 0.569200 0.001500
vn -0.305700 -0.952100 -0.000500
vn 0.822500 -0.568800 0.001600
vn -0.306000 0.952000 -0.000600
vn -1.000000 -0.000200 -0.001800
vn 0.001800 -0.000100 -1.000000
vn 0.000000 0.000000 1.000000
vn 0.000200 -1.000000 0.000100
s off
f 6/1/1 8/2/1 3/3/1
f 8/4/2 16/5/2 7/6/2
f 11/7/3 12/8/3 15/9/3
f 6/10/4 12/11/4 11/12/4
f 13/8/5 15/9/5 16/13/5
f 13/14/6 14/15/6 7/16/6
f 7/2/7 5/1/7 1/17/7
f 5/6/8 15/5/8 6/4/8
f 2/18/9 3/18/9 18/18/9
f 19/19/7 21/20/7 4/3/7
f 20/21/8 24/21/8 23/22/8
f 17/17/1 18/3/1 22/20/1
f 21/22/2 22/21/2 18/18/2
f 26/20/1 30/20/1 28/19/1
f 22/21/2 21/22/2 25/22/2
f 19/19/7 23/19/7 25/20/7
f 22/20/1 26/20/1 24/19/1
f 27/23/10 28/10/10 30/24/10
f 24/21/8 28/21/8 27/22/8
f 26/21/2 25/22/2 29/22/2
f 23/19/7 27/19/7 29/20/7
f 2/17/1 6/1/1 3/3/1
f 4/25/2 3/18/2 8/4/2
f 8/4/2 11/26/2 16/5/2
f 16/5/2 14/27/2 7/6/2
f 7/6/2 4/25/2 8/4/2
f 16/13/3 11/7/3 15/9/3
f 8/24/4 6/10/4 11/12/4
f 14/7/5 13/8/5 16/13/5
f 5/23/6 13/14/6 7/16/6
f 4/3/7 7/2/7 1/17/7
f 6/4/9 2/18/9 17/18/9
f 17/18/8 20/21/8 19/22/8
f 5/6/8 13/27/8 15/5/8
f 17/18/8 19/22/8 1/25/8
f 1/25/8 5/6/8 6/4/8
f 15/5/8 12/26/8 6/4/8
f 6/4/8 17/18/8 1/25/8
f 17/18/9 2/18/9 18/18/9
f 1/17/7 19/19/7 4/3/7
f 19/22/8 20/21/8 23/22/8
f 20/19/1 17/17/1 22/20/1
f 4/25/2 21/22/2 18/18/2
f 18/18/9 3/18/9 4/25/9
f 24/19/1 26/20/1 28/19/1
f 26/21/2 22/21/2 25/22/2
f 21/20/7 19/19/7 25/20/7
f 20/19/1 22/20/1 24/19/1
f 29/16/10 27/23/10 30/24/10
f 23/22/8 24/21/8 27/22/8
f 30/21/2 26/21/2 29/22/2
f 25/20/7 23/19/7 29/20/7
o Cube
v -0.200681 -0.440103 0.017269
v -0.144812 -0.440113 0.017167
v -0.144836 -0.440114 0.004179
v -0.200705 -0.440104 0.004281
v -0.200773 -0.829748 0.017301
v -0.144903 -0.829758 0.017199
v -0.200796 -0.829749 0.004313
v -0.144927 -0.829759 0.004211
v -0.172838 -0.829753 0.017250
v -0.172862 -0.829754 0.004262
v -0.069310 -0.805484 0.004071
v -0.069287 -0.805483 0.017059
v -0.276378 -0.805446 0.017437
v -0.276402 -0.805447 0.004449
v -0.172867 -0.955112 0.017260
v -0.172891 -0.955113 0.004272
v -0.144812 -0.440113 0.017167
v -0.144836 -0.440114 0.004179
v -0.200534 0.186691 0.017217
v -0.144665 0.186681 0.017115
v -0.200558 0.186690 0.004229
v -0.144689 0.186680 0.004127
v -0.200439 0.665299 0.017177
v -0.144570 0.665289 0.017075
v -0.200463 0.665298 0.004189
v -0.144593 0.665288 0.004087
v -0.200409 0.822379 0.017164
v -0.144539 0.822369 0.017062
v -0.200432 0.822378 0.004176
v -0.144563 0.822368 0.004074
vt 0.115109 0.506393
vt 0.115109 0.496032
vt 0.425932 0.496033
vt 0.445492 0.115109
vt 0.432536 0.015109
vt 0.419590 0.115110
vt 0.134482 0.496032
vt 0.134482 0.506393
vt 0.015109 0.506393
vt 0.445492 0.506393
vt 0.480548 0.506393
vt 0.480548 0.496032
vt 0.015109 0.496032
vt 0.384536 0.496032
vt 0.419590 0.496032
vt 0.419590 0.506393
vt 0.425933 0.506393
vt 0.445507 0.425932
vt 0.925933 0.506393
vt 0.925933 0.496033
vt 0.445532 0.925932
vt 0.419630 0.925933
vt 0.445532 0.496033
vt 0.419605 0.425933
vt 0.480548 0.134482
vt 0.384536 0.134487
vt 0.384536 0.506393
vn 1.000000 -0.000200 -0.001800
vn -0.001800 -0.000100 -1.000000
vn 0.822200 -0.569200 -0.001500
vn -0.305700 0.952100 0.000500
vn 0.822500 0.568800 -0.001600
vn -0.306000 -0.952000 0.000600
vn -1.000000 0.000200 0.001800
vn 0.001800 0.000100 1.000000
vn 0.000000 0.000000 1.000000
vn 0.000200 1.000000 -0.000100
s off
f 36/28/11 38/29/11 33/30/11
f 38/31/12 46/32/12 37/33/12
f 41/34/13 42/35/13 45/36/13
f 36/37/14 42/38/14 41/39/14
f 43/35/15 45/36/15 46/40/15
f 44/41/16 37/42/16 35/43/16
f 37/29/17 35/28/17 31/44/17
f 35/33/18 45/32/18 36/31/18
f 32/45/19 33/45/19 48/45/19
f 49/46/17 51/47/17 34/30/17
f 50/48/18 54/48/18 53/49/18
f 47/44/11 48/30/11 52/47/11
f 51/49/12 52/48/12 48/45/12
f 56/47/11 60/47/11 58/46/11
f 52/48/12 51/49/12 55/49/12
f 49/46/17 53/46/17 55/47/17
f 52/47/11 56/47/11 54/46/11
f 57/43/20 58/37/20 60/50/20
f 54/48/18 58/48/18 57/49/18
f 56/48/12 55/49/12 59/49/12
f 53/46/17 57/46/17 59/47/17
f 32/44/11 36/28/11 33/30/11
f 34/51/12 33/45/12 38/31/12
f 38/31/12 41/52/12 46/32/12
f 46/32/12 44/53/12 37/33/12
f 37/33/12 34/51/12 38/31/12
f 46/40/13 41/34/13 45/36/13
f 38/50/14 36/37/14 41/39/14
f 44/34/15 43/35/15 46/40/15
f 43/54/16 44/41/16 35/43/16
f 34/30/17 37/29/17 31/44/17
f 36/31/19 32/45/19 47/45/19
f 47/45/18 50/48/18 49/49/18
f 35/33/18 43/53/18 45/32/18
f 47/45/18 49/49/18 31/51/18
f 31/51/18 35/33/18 36/31/18
f 45/32/18 42/52/18 36/31/18
f 36/31/18 47/45/18 31/51/18
f 47/45/19 32/45/19 48/45/19
f 31/44/17 49/46/17 34/30/17
f 49/49/18 50/48/18 53/49/18
f 50/46/11 47/44/11 52/47/11
f 34/51/12 51/49/12 48/45/12
f 48/45/19 33/45/19 34/51/19
f 54/46/11 56/47/11 58/46/11
f 56/48/12 52/48/12 55/49/12
f 51/47/17 49/46/17 55/47/17
f 50/46/11 52/47/11 54/46/11
f 59/42/20 57/43/20 60/50/20
f 53/49/18 54/48/18 57/49/18
f 60/48/12 56/48/12 59/49/12
f 55/47/17 53/46/17 59/47/17
o Plane
v 0.993680 -0.805045 -0.023708
v 0.993680 -0.661759 -0.023708
v 1.160079 -0.733402 -0.023708
v 1.016467 0.527850 -0.023914
v 0.850142 0.515591 -0.023914
v 0.633356 0.480501 -0.023914
v 0.433565 0.423517 -0.023914
v 0.258447 0.346831 -0.023914
v 0.114732 0.253388 -0.023914
v 0.007941 0.146779 -0.023914
v -0.057820 0.031103 -0.023914
v -0.080025 -0.089197 -0.023914
v -0.057820 -0.209497 -0.023914
v 0.007941 -0.325174 -0.023914
v 0.114732 -0.431782 -0.023914
v 0.258447 -0.525225 -0.023914
v 0.433565 -0.601912 -0.023914
v 0.633356 -0.658895 -0.023914
v 0.850142 -0.693986 -0.023914
v 1.016057 -0.701728 -0.023914
v 1.016345 0.581060 -0.023914
v 0.790895 0.568181 -0.023914
v 0.574110 0.530040 -0.023914
v 0.374319 0.468101 -0.023914
v 0.199201 0.384746 -0.023914
v 0.055485 0.283178 -0.023914
v -0.051305 0.167299 -0.023914
v -0.117066 0.041563 -0.023914
v -0.139271 -0.089197 -0.023914
v -0.117066 -0.219958 -0.023914
v -0.051305 -0.345694 -0.023914
v 0.055485 -0.461572 -0.023914
v 0.199201 -0.563141 -0.023914
v 0.374319 -0.646496 -0.023914
v 0.574110 -0.708434 -0.023914
v 0.790896 -0.746576 -0.023914
v 1.016345 -0.759455 -0.023914
vn 0.000000 0.000000 -1.000000
vn 0.002000 0.000000 -1.000000
vn 0.002400 -0.005700 -1.000000
vn 0.001400 -0.002500 -1.000000
vn 0.001600 0.002900 -1.000000
vn 0.002900 0.006800 -1.000000
s 1
f 90//21 72//21 73//21
f 63//22 61//23 97//24
f 97//24 96//21 79//21
f 95//21 94//21 77//21
f 93//21 92//21 75//21
f 91//21 90//21 73//21
f 89//21 88//21 72//21
f 87//21 86//21 70//21
f 85//21 84//21 68//21
f 83//21 82//21 66//21
f 81//21 64//21 65//21
f 80//25 62//26 63//22
f 81//21 65//21 82//21
f 79//21 80//25 97//24
f 82//21 65//21 66//21
f 80//25 63//22 97//24
f 83//21 66//21 67//21
f 78//21 79//21 96//21
f 83//21 67//21 84//21
f 78//21 96//21 95//21
f 84//21 67//21 68//21
f 77//21 78//21 95//21
f 85//21 68//21 69//21
f 76//21 77//21 94//21
f 85//21 69//21 86//21
f 76//21 94//21 93//21
f 86//21 69//21 70//21
f 75//21 76//21 93//21
f 87//21 70//21 71//21
f 74//21 75//21 92//21
f 87//21 71//21 88//21
f 74//21 92//21 91//21
f 88//21 71//21 72//21
f 73//21 74//21 91//21
f 89//21 72//21 90//21
