# Blender v2.75 (sub 0) OBJ File: 'arrow_rectangle_down_single_bent5.blend'
# www.blender.org
o Cube
v -0.160789 0.012787 0.148134
v -0.108985 0.012787 0.148136
v -0.108985 -0.007935 0.148136
v -0.160789 -0.007935 0.148134
v -0.160820 0.012786 0.769780
v -0.109016 0.012786 0.769782
v -0.160820 -0.007935 0.769780
v -0.109016 -0.007935 0.769782
v -0.134918 0.012786 0.769781
v -0.134918 -0.007935 0.769781
v -0.038905 -0.007935 0.731035
v -0.038905 0.012786 0.731035
v -0.230927 0.012787 0.731026
v -0.230927 -0.007935 0.731026
v -0.134928 0.012786 0.969781
v -0.134928 -0.007935 0.969781
v -0.108985 0.012787 0.148136
v -0.108985 -0.007935 0.148136
v -0.160740 0.012787 -0.851866
v -0.108936 0.012787 -0.851864
v -0.160740 -0.007935 -0.851866
v -0.108936 -0.007935 -0.851864
vt 0.115109 0.506393
vt 0.115109 0.496032
vt 0.425932 0.496033
vt 0.445492 0.115109
vt 0.432536 0.015109
vt 0.419590 0.115110
vt 0.134482 0.496032
vt 0.134482 0.506393
vt 0.015109 0.506393
vt 0.445492 0.506393
vt 0.480548 0.506393
vt 0.480548 0.496032
vt 0.384536 0.496032
vt 0.419590 0.496032
vt 0.419590 0.506393
vt 0.419605 0.425933
vt 0.445507 0.425932
vt 0.925933 0.506393
vt 0.925933 0.496033
vt 0.445532 0.496033
vt 0.419630 0.925933
vt 0.425932 0.506393
vt 0.384536 0.134487
vt 0.480548 0.134482
vt 0.015109 0.496032
vt 0.384536 0.506393
vt 0.445532 0.925932
vn 1.000000 -0.000000 0.000000
vn -0.000000 -1.000000 -0.000000
vn 0.927800 -0.000000 0.373100
vn -0.483700 0.000000 -0.875200
vn 0.927800 -0.000000 -0.373100
vn -0.483800 0.000000 0.875200
vn -1.000000 0.000000 -0.000000
vn 0.000000 1.000000 0.000000
vn 0.000000 0.000000 1.000000
vn 0.000000 0.000000 -1.000000
s off
f 6/1/1 8/2/1 3/3/1
f 8/4/2 16/5/2 7/6/2
f 11/7/3 12/8/3 15/9/3
f 6/10/4 12/11/4 11/12/4
f 14/7/5 13/8/5 15/9/5
f 14/13/6 7/14/6 5/15/6
f 4/3/7 7/2/7 5/1/7
f 6/4/8 1/16/8 5/6/8
f 2/17/9 3/17/9 18/17/9
f 19/18/7 21/19/7 4/3/7
f 20/10/10 22/20/10 21/14/10
f 18/3/1 22/19/1 20/18/1
f 4/16/2 21/21/2 18/17/2
f 2/22/1 6/1/1 3/3/1
f 7/6/2 4/16/2 3/17/2
f 16/5/2 14/23/2 7/6/2
f 8/4/2 11/24/2 16/5/2
f 7/6/2 3/17/2 8/4/2
f 16/25/3 11/7/3 15/9/3
f 8/20/4 6/10/4 11/12/4
f 16/25/5 14/7/5 15/9/5
f 13/26/6 14/13/6 5/15/6
f 1/22/7 4/3/7 5/1/7
f 15/5/8 12/24/8 6/4/8
f 6/4/9 2/17/9 17/17/9
f 17/17/8 20/27/8 19/21/8
f 5/6/8 13/23/8 15/5/8
f 17/17/8 19/21/8 1/16/8
f 6/4/8 5/6/8 15/5/8
f 1/16/8 6/4/8 17/17/8
f 17/17/9 2/17/9 18/17/9
f 1/22/7 19/18/7 4/3/7
f 19/15/10 20/10/10 21/14/10
f 17/22/1 18/3/1 20/18/1
f 18/17/9 3/17/9 4/16/9
f 21/21/2 22/27/2 18/17/2
