# Blender v2.76 (sub 0) OBJ File: 'arrow_rectangle_down_up_45.blend'
# www.blender.org
o Cube.001_Cube.002
v -0.000031 0.011052 -0.142605
v -0.036664 0.011052 -0.105976
v -0.036673 -0.009670 -0.105985
v -0.000040 -0.009670 -0.142614
v -0.439580 0.011447 -0.582197
v -0.476212 0.011447 -0.545568
v -0.439589 -0.009275 -0.582206
v -0.476222 -0.009275 -0.545577
v -0.457896 0.011447 -0.563882
v -0.457905 -0.009275 -0.563892
v -0.498399 -0.009300 -0.468603
v -0.498390 0.011422 -0.468593
v -0.362603 0.011422 -0.604367
v -0.362612 -0.009299 -0.604377
v -0.599310 0.011574 -0.705311
v -0.599320 -0.009148 -0.705320
v -0.036664 0.011052 -0.105976
v -0.036673 -0.009670 -0.105985
v 0.707041 0.010417 0.564536
v 0.670408 0.010417 0.601165
v 0.707031 -0.010305 0.564527
v 0.670399 -0.010305 0.601156
vt 0.115109 0.506393
vt 0.115109 0.496032
vt 0.425932 0.496033
vt 0.445492 0.115109
vt 0.432536 0.015109
vt 0.419590 0.115110
vt 0.134482 0.496032
vt 0.134482 0.506393
vt 0.015109 0.506393
vt 0.445492 0.506393
vt 0.480548 0.506393
vt 0.480548 0.496032
vt 0.015109 0.496032
vt 0.384536 0.496032
vt 0.419590 0.496032
vt 0.419590 0.506393
vt 0.425933 0.506393
vt 0.445507 0.425932
vt 0.925933 0.506393
vt 0.925933 0.496033
vt 0.445532 0.496033
vt 0.419630 0.925933
vt 0.445532 0.925932
vt 0.419605 0.425933
vt 0.480548 0.134482
vt 0.384536 0.134487
vt 0.384536 0.506393
vn -0.707100 -0.000000 0.707100
vn -0.000400 -1.000000 -0.000400
vn -0.919900 0.000200 0.392200
vn 0.960900 -0.000600 0.276900
vn -0.392300 -0.000200 0.919900
vn -0.276800 0.000600 -0.960900
vn 0.707100 -0.000000 -0.707100
vn 0.000400 1.000000 0.000400
vn 0.000000 0.000000 1.000000
vn 0.707100 -0.000600 0.707100
s off
f 6/1/1 8/2/1 3/3/1
f 8/4/2 16/5/2 7/6/2
f 11/7/3 12/8/3 15/9/3
f 6/10/4 12/11/4 11/12/4
f 13/8/5 15/9/5 16/13/5
f 14/14/6 7/15/6 5/16/6
f 7/2/7 5/1/7 1/17/7
f 5/6/8 15/5/8 6/4/8
f 2/18/9 3/18/9 18/18/9
f 19/19/7 21/20/7 4/3/7
f 20/10/10 22/21/10 21/15/10
f 18/3/1 22/20/1 20/19/1
f 21/22/2 22/23/2 18/18/2
f 2/17/1 6/1/1 3/3/1
f 4/24/2 3/18/2 8/4/2
f 8/4/2 11/25/2 16/5/2
f 16/5/2 14/26/2 7/6/2
f 7/6/2 4/24/2 8/4/2
f 16/13/3 11/7/3 15/9/3
f 8/21/4 6/10/4 11/12/4
f 14/7/5 13/8/5 16/13/5
f 13/27/6 14/14/6 5/16/6
f 4/3/7 7/2/7 1/17/7
f 6/4/9 2/18/9 17/18/9
f 17/18/8 20/23/8 1/24/8
f 5/6/8 13/26/8 15/5/8
f 20/23/8 19/22/8 1/24/8
f 1/24/8 5/6/8 6/4/8
f 15/5/8 12/25/8 6/4/8
f 6/4/8 17/18/8 1/24/8
f 17/18/9 2/18/9 18/18/9
f 1/17/7 19/19/7 4/3/7
f 19/16/10 20/10/10 21/15/10
f 17/17/1 18/3/1 20/19/1
f 4/24/2 21/22/2 18/18/2
f 18/18/9 3/18/9 4/24/9
o Cube
v -0.013523 0.012787 0.125081
v 0.023109 0.012787 0.088452
v 0.023109 -0.007935 0.088452
v -0.013523 -0.007935 0.125081
v 0.426025 0.012786 0.564673
v 0.462658 0.012786 0.528044
v 0.426025 -0.007935 0.564673
v 0.462658 -0.007935 0.528044
v 0.444342 0.012786 0.546359
v 0.444342 -0.007935 0.546359
v 0.484836 -0.007935 0.451070
v 0.484836 0.012786 0.451070
v 0.349049 0.012787 0.586843
v 0.349049 -0.007935 0.586843
v 0.585756 0.012786 0.687787
v 0.585756 -0.007935 0.687787
v 0.023109 0.012787 0.088452
v 0.023109 -0.007935 0.088452
v -0.720595 0.012787 -0.582060
v -0.683963 0.012787 -0.618689
v -0.720595 -0.007935 -0.582060
v -0.683963 -0.007935 -0.618689
vt 0.115109 0.506393
vt 0.115109 0.496032
vt 0.425932 0.496033
vt 0.445492 0.115109
vt 0.432536 0.015109
vt 0.419590 0.115110
vt 0.134482 0.496032
vt 0.134482 0.506393
vt 0.015109 0.506393
vt 0.445492 0.506393
vt 0.480548 0.506393
vt 0.480548 0.496032
vt 0.384536 0.506393
vt 0.384536 0.496032
vt 0.419590 0.496032
vt 0.425933 0.506393
vt 0.445507 0.425932
vt 0.925933 0.506393
vt 0.925933 0.496033
vt 0.445532 0.496033
vt 0.419605 0.425933
vt 0.445532 0.925932
vt 0.480548 0.134482
vt 0.384536 0.134487
vt 0.015109 0.496032
vt 0.419590 0.506393
vt 0.419630 0.925933
vn 0.707100 -0.000000 -0.707100
vn -0.000000 -1.000000 0.000000
vn 0.919900 0.000000 -0.392200
vn -0.960900 0.000000 -0.276900
vn 0.392300 0.000000 -0.919900
vn 0.276800 0.000000 0.960900
vn -0.707100 0.000000 0.707100
vn 0.000000 1.000000 -0.000000
vn 0.000000 0.000000 1.000000
vn -0.707100 0.000000 -0.707100
s off
f 28/28/11 30/29/11 25/30/11
f 30/31/12 38/32/12 29/33/12
f 33/34/13 34/35/13 37/36/13
f 28/37/14 34/38/14 33/39/14
f 36/34/15 35/35/15 37/36/15
f 35/40/16 36/41/16 29/42/16
f 29/29/17 27/28/17 23/43/17
f 27/33/18 37/32/18 28/31/18
f 24/44/19 25/44/19 40/44/19
f 41/45/17 43/46/17 26/30/17
f 42/37/20 44/47/20 43/42/20
f 40/30/11 44/46/11 42/45/11
f 26/48/12 44/49/12 40/44/12
f 24/43/11 28/28/11 25/30/11
f 26/48/12 25/44/12 29/33/12
f 30/31/12 33/50/12 38/32/12
f 38/32/12 36/51/12 29/33/12
f 29/33/12 25/44/12 30/31/12
f 38/52/13 33/34/13 37/36/13
f 30/47/14 28/37/14 33/39/14
f 38/52/15 36/34/15 37/36/15
f 27/53/16 35/40/16 29/42/16
f 26/30/17 29/29/17 23/43/17
f 28/31/19 24/44/19 39/44/19
f 39/44/18 42/49/18 23/48/18
f 27/33/18 35/51/18 37/32/18
f 42/49/18 41/54/18 23/48/18
f 23/48/18 27/33/18 28/31/18
f 37/32/18 34/50/18 28/31/18
f 28/31/18 39/44/18 23/48/18
f 39/44/19 24/44/19 40/44/19
f 23/43/17 41/45/17 26/30/17
f 41/53/20 42/37/20 43/42/20
f 39/43/11 40/30/11 42/45/11
f 26/48/12 43/54/12 44/49/12
f 40/44/19 25/44/19 26/48/19
