# Blender v2.76 (sub 0) OBJ File: ''
# www.blender.org
mtllib frame.mtl
o Grid
v -1.000000 0.000000 1.000000
v -0.777778 0.000000 1.000000
v -0.555556 0.000000 1.000000
v -0.333333 0.000000 1.000000
v -0.111111 0.000000 1.000000
v 0.111111 0.000000 1.000000
v 0.333333 0.000000 1.000000
v 0.555556 0.000000 1.000000
v 0.777778 0.000000 1.000000
v 1.000000 0.000000 1.000000
v -1.000000 0.000000 0.777778
v -0.777778 0.000000 0.777778
v -0.555556 0.000000 0.777778
v -0.333333 0.000000 0.777778
v -0.111111 0.000000 0.777778
v 0.111111 0.000000 0.777778
v 0.333333 0.000000 0.777778
v 0.555556 0.000000 0.777778
v 0.777778 0.000000 0.777778
v 1.000000 0.000000 0.777778
v -1.000000 0.000000 0.555556
v -0.777778 0.000000 0.555556
v 0.777778 0.000000 0.555556
v 1.000000 0.000000 0.555556
v -1.000000 0.000000 0.333333
v -0.777778 0.000000 0.333333
v 0.777778 0.000000 0.333333
v 1.000000 0.000000 0.333333
v -1.000000 0.000000 0.111111
v -0.777778 0.000000 0.111111
v 0.777778 0.000000 0.111111
v 1.000000 0.000000 0.111111
v -1.000000 0.000000 -0.111111
v -0.777778 0.000000 -0.111111
v 0.777778 0.000000 -0.111111
v 1.000000 0.000000 -0.111111
v -1.000000 0.000000 -0.333333
v -0.777778 0.000000 -0.333333
v 0.777778 0.000000 -0.333333
v 1.000000 0.000000 -0.333333
v -1.000000 0.000000 -0.555556
v -0.777778 0.000000 -0.555556
v 0.777778 0.000000 -0.555556
v 1.000000 0.000000 -0.555556
v -1.000000 0.000000 -0.777778
v -0.777778 0.000000 -0.777778
v -0.555556 0.000000 -0.777778
v -0.333333 0.000000 -0.777778
v -0.111111 0.000000 -0.777778
v 0.111111 0.000000 -0.777778
v 0.333333 0.000000 -0.777778
v 0.555556 0.000000 -0.777778
v 0.777778 0.000000 -0.777778
v 1.000000 0.000000 -0.777778
v -1.000000 0.000000 -1.000000
v -0.777778 0.000000 -1.000000
v -0.555556 0.000000 -1.000000
v -0.333333 0.000000 -1.000000
v -0.111111 0.000000 -1.000000
v 0.111111 0.000000 -1.000000
v 0.333333 0.000000 -1.000000
v 0.555556 0.000000 -1.000000
v 0.777778 0.000000 -1.000000
v 1.000000 0.000000 -1.000000
vn 0.000000 1.000000 0.000000
usemtl None
s off
f 1//1 2//1 12//1 11//1
f 2//1 3//1 13//1 12//1
f 3//1 4//1 14//1 13//1
f 4//1 5//1 15//1 14//1
f 5//1 6//1 16//1 15//1
f 6//1 7//1 17//1 16//1
f 7//1 8//1 18//1 17//1
f 8//1 9//1 19//1 18//1
f 9//1 10//1 20//1 19//1
f 11//1 12//1 22//1 21//1
f 19//1 20//1 24//1 23//1
f 21//1 22//1 26//1 25//1
f 23//1 24//1 28//1 27//1
f 25//1 26//1 30//1 29//1
f 27//1 28//1 32//1 31//1
f 29//1 30//1 34//1 33//1
f 31//1 32//1 36//1 35//1
f 33//1 34//1 38//1 37//1
f 35//1 36//1 40//1 39//1
f 37//1 38//1 42//1 41//1
f 39//1 40//1 44//1 43//1
f 41//1 42//1 46//1 45//1
f 43//1 44//1 54//1 53//1
f 45//1 46//1 56//1 55//1
f 46//1 47//1 57//1 56//1
f 47//1 48//1 58//1 57//1
f 48//1 49//1 59//1 58//1
f 49//1 50//1 60//1 59//1
f 50//1 51//1 61//1 60//1
f 51//1 52//1 62//1 61//1
f 52//1 53//1 63//1 62//1
f 53//1 54//1 64//1 63//1
